<svg version="1.1" id="Layer_1" xmlns="http://www.w3.org/2000/svg" xmlns:xlink="http://www.w3.org/1999/xlink" x="0px" y="0px"
	 width="100%" viewBox="0 0 734 691" enable-background="new 0 0 734 691" xml:space="preserve">
<path fill="#F3F3F3" opacity="2.000000" stroke="none" 
	d="
M494.000000,692.000000 
	C329.333344,692.000000 165.166672,692.000000 1.000000,692.000000 
	C1.000000,461.666656 1.000000,231.333328 1.000000,1.000000 
	C245.666672,1.000000 490.333344,1.000000 735.000000,1.000000 
	C735.000000,231.333328 735.000000,461.666656 735.000000,692.000000 
	C654.833313,692.000000 574.666687,692.000000 494.000000,692.000000 
M458.566010,289.955658 
	C458.656128,289.621124 458.746246,289.286591 459.404602,288.556122 
	C465.459595,277.485474 471.568542,266.443604 477.511292,255.313049 
	C478.400574,253.647461 478.911652,251.567657 478.919983,249.676498 
	C479.016083,227.888428 478.909546,206.099289 479.064667,184.311890 
	C479.085999,181.311707 477.870972,179.937256 475.511749,178.580002 
	C461.691711,170.629196 447.950439,162.541519 434.170013,154.521683 
	C433.086151,153.890945 431.906342,153.425064 430.625092,152.812775 
	C427.981110,157.631073 425.500275,162.128113 423.041687,166.637283 
	C416.371063,178.871536 409.742645,191.129227 402.949646,203.295074 
	C402.604279,203.913635 402.547882,207.806732 400.051544,203.897644 
	C400.009521,203.208160 399.967468,202.518661 400.042542,201.148834 
	C409.150635,184.398285 418.258759,167.647751 427.509918,150.634140 
	C410.836273,140.911362 394.563782,131.422516 378.053436,121.794968 
	C373.139008,132.189346 368.460144,142.085480 363.258331,151.880020 
	C362.820892,150.543549 362.383453,149.207092 362.032867,147.173462 
	C366.234192,138.175247 370.435516,129.177032 374.741638,119.954323 
	C370.858368,117.902008 367.851654,114.011322 363.223145,116.452126 
	C357.519684,119.459808 352.045471,122.902130 346.203094,126.313728 
	C351.303192,133.815964 356.146881,140.941055 360.637939,148.656113 
	C359.910126,149.191238 359.182281,149.726379 357.985413,149.811951 
	C353.010620,142.621552 348.035858,135.431137 343.013336,128.171738 
	C315.129456,144.429291 287.948425,160.562469 260.428741,176.095718 
	C254.503922,179.439941 251.732437,183.123840 253.062241,189.649963 
	C253.437424,191.491211 253.996918,193.475555 255.073227,194.957550 
	C257.711090,198.589722 260.707275,201.961014 263.545685,205.448349 
	C278.359344,223.648849 293.168823,241.852814 307.948944,260.707458 
	C307.967377,261.141815 307.985840,261.576202 307.861694,262.778870 
	C306.656067,262.137238 305.101166,261.784149 304.297058,260.810822 
	C291.680908,245.539322 279.166748,230.183594 266.616943,214.857254 
	C262.366302,209.666245 258.081757,204.503006 253.751907,199.253342 
	C253.276016,199.821152 253.100983,199.932449 253.100876,200.043915 
	C253.065552,236.681961 253.018051,273.320068 253.119202,309.957794 
	C253.122742,311.243256 254.302063,313.024475 255.451431,313.726440 
	C262.684540,318.144135 270.064423,322.321533 277.852020,326.843231 
	C287.572510,306.125732 297.220184,285.563507 306.136627,266.559723 
	C308.738129,265.754150 309.934326,265.383759 311.552429,265.024536 
	C311.552429,265.024536 311.974243,265.009857 312.553223,265.346222 
	C322.728912,277.835693 332.904602,290.325195 343.095306,303.463226 
	C343.507355,303.820374 343.919434,304.177551 344.331512,304.534698 
	C344.526886,303.959045 344.722260,303.383392 345.034454,302.122589 
	C357.897888,278.520630 370.791382,254.934967 383.608643,231.307953 
	C388.160278,222.917603 392.526611,214.426743 396.900909,205.972931 
	C396.900909,205.972931 396.750702,205.981354 396.666290,206.772461 
	C397.434570,207.777496 398.202850,208.782516 398.940094,210.301117 
	C398.953796,210.471863 398.967529,210.642609 398.682190,211.452988 
	C392.801697,222.210663 386.940369,232.978882 381.036621,243.723755 
	C369.631134,264.481812 358.201752,285.226654 346.115112,305.946320 
	C340.549347,306.296112 345.778564,309.225800 344.413330,311.139038 
	C336.928802,324.843811 329.444275,338.548584 321.817566,352.513763 
	C335.693146,360.610809 349.282227,368.636139 363.011444,376.414124 
	C364.488403,377.250824 367.164429,377.371979 368.628143,376.592712 
	C375.606750,372.877441 382.358643,368.736359 389.372375,364.640900 
	C374.658142,346.537903 360.289124,328.859619 345.987488,310.466644 
	C346.346527,309.633148 346.705597,308.799652 347.687286,308.216736 
	C362.626740,326.369080 377.566193,344.521423 392.582550,362.767242 
	C404.326782,355.929535 415.596832,349.573883 426.615875,342.809387 
	C429.414001,341.091614 432.032257,338.431274 433.675476,335.591888 
	C441.643311,321.824158 449.251190,307.848114 457.346832,294.772125 
	C457.182922,296.703644 457.593903,298.937195 456.763275,300.518494 
	C450.623932,312.205597 444.237274,323.762726 437.928406,335.360748 
	C438.143585,335.561798 438.358765,335.762848 438.573975,335.963898 
	C449.654419,329.500305 460.734863,323.036713 472.132141,316.388306 
	C467.974976,310.327789 463.943085,304.645569 460.180481,298.790283 
	C459.475433,297.693024 459.847626,295.903564 459.722717,294.433533 
	C460.232422,294.399872 460.742126,294.366241 461.251862,294.332611 
	C465.865814,300.975769 470.479767,307.618927 475.093719,314.262085 
	C475.685699,314.342285 476.277679,314.422516 476.869659,314.502716 
	C477.576965,312.551025 478.872437,310.606781 478.897278,308.646454 
	C479.074219,294.672729 478.991760,280.695770 478.991852,266.719818 
	C478.991852,265.022797 478.991882,263.325806 478.991882,261.628784 
	C478.695648,261.616302 478.399384,261.603821 478.103149,261.591309 
	C472.384827,272.018768 466.666504,282.446259 461.007507,292.765533 
	C459.772583,291.955597 458.867096,291.361725 458.066986,290.323944 
	C458.066986,290.323944 458.050690,289.867981 458.566010,289.955658 
M295.396027,297.858246 
	C290.611023,308.134125 285.825989,318.409973 281.015900,328.739655 
	C293.797852,336.176056 306.067291,343.314331 318.549408,350.576294 
	C326.635590,335.761688 334.397736,321.540710 342.261902,307.132812 
	C331.484161,293.948883 320.790894,280.868286 309.748322,267.360413 
	C304.874908,277.777527 300.329529,287.493469 295.396027,297.858246 
M381.108490,454.534851 
	C381.108490,466.631226 381.108490,478.727600 381.108490,490.704071 
	C384.344940,490.704071 386.909943,490.704071 389.831604,490.704071 
	C389.831604,486.876038 389.831604,483.425018 389.831604,479.715149 
	C390.867523,480.040161 391.478912,480.244385 392.097412,480.424103 
	C400.671997,482.916260 404.874084,479.832703 404.889618,471.027161 
	C404.899628,465.364716 404.900146,459.702240 404.889465,454.039825 
	C404.873230,445.456146 400.611481,442.304535 392.413971,444.763367 
	C391.591888,445.009949 390.674408,445.230896 389.848328,445.118286 
	C387.099670,444.743713 384.372467,444.211517 381.108521,443.648621 
	C381.108521,447.619293 381.108521,450.585114 381.108490,454.534851 
M482.870178,455.619019 
	C482.858704,445.737976 481.191742,444.068542 471.286072,444.065369 
	C469.458282,444.064789 467.614349,443.994049 465.805847,444.200623 
	C461.165649,444.730621 458.608276,447.161804 458.726105,452.098450 
	C458.837189,456.753082 458.746643,461.412476 458.746490,466.069794 
	C458.746063,480.954590 458.957825,481.166351 473.670227,481.014648 
	C481.124329,480.937805 483.497070,478.016357 482.301849,470.139343 
	C479.892609,470.139343 477.450714,470.139343 474.777069,470.139343 
	C474.900848,473.892181 472.971985,475.672638 469.549805,474.621918 
	C464.076233,472.941315 468.106293,468.543243 466.652924,465.014771 
	C469.760742,465.014771 472.213898,465.014771 474.667053,465.014771 
	C477.275238,465.014771 479.883423,465.014771 482.870178,465.014771 
	C482.870178,461.816437 482.870178,459.187988 482.870178,455.619019 
M339.870209,456.555237 
	C339.866180,445.383667 338.511780,444.044556 327.227173,444.060608 
	C326.063080,444.062256 324.892731,443.999146 323.735901,444.094604 
	C317.833099,444.581512 315.842834,446.693848 315.760101,452.657257 
	C315.697784,457.147156 315.746429,461.638672 315.746368,466.129456 
	C315.746246,480.976624 315.950287,481.179199 330.728821,481.014648 
	C338.161957,480.931885 340.589905,477.896027 339.259827,470.129333 
	C336.851746,470.129333 334.413177,470.129333 331.464142,470.129333 
	C332.424469,474.664520 329.532898,475.497406 326.504944,474.576813 
	C321.124603,472.940948 325.020386,468.540710 323.710388,464.920105 
	C329.403717,464.920105 334.468536,464.920105 339.870178,464.920105 
	C339.870178,462.096100 339.870178,459.798889 339.870209,456.555237 
M365.543976,444.577057 
	C351.680176,442.280518 348.612000,444.840363 348.828766,457.944489 
	C348.911194,462.928619 351.276855,465.304443 355.924316,465.825012 
	C358.172089,466.076813 360.445374,466.101105 364.017242,466.302155 
	C362.827484,469.676056 361.898956,472.309113 360.970428,474.942108 
	C359.223358,473.667267 357.476288,472.392426 355.729218,471.117554 
	C355.923340,470.845825 356.117493,470.574066 356.311646,470.302307 
	C354.026825,470.302307 351.742035,470.302307 349.496002,470.302307 
	C348.638306,476.577026 349.612549,479.027222 353.408783,480.468323 
	C358.305847,482.327301 368.006042,481.052277 369.932098,478.214630 
	C370.474152,477.416016 371.041168,476.369598 370.985474,475.474854 
	C370.711212,471.069031 371.217529,466.198578 369.415466,462.476257 
	C368.489594,460.563690 363.317413,460.702850 360.060852,459.928711 
	C359.741058,459.852661 359.141571,459.956970 359.103607,459.838837 
	C358.367584,457.549194 357.363861,455.262634 357.196686,452.919617 
	C357.140442,452.131226 359.926056,450.246948 360.244049,450.477234 
	C361.739380,451.560303 362.828339,453.204468 364.207306,454.817993 
	C366.033661,454.817993 368.319153,454.817993 370.909454,454.817993 
	C370.986389,450.530853 371.403442,446.481628 365.543976,444.577057 
M253.186752,480.984711 
	C253.701859,479.610779 254.612839,478.250610 254.661285,476.860413 
	C254.839615,471.742828 254.732086,466.615265 254.732086,460.957947 
	C258.714905,460.957947 262.292664,460.957947 266.143005,460.957947 
	C266.037872,458.668060 265.958313,456.935303 265.860901,454.812988 
	C262.014435,454.812988 258.582977,454.812988 255.040634,454.812988 
	C255.040634,449.816467 255.040634,445.236176 255.040634,440.157349 
	C259.757996,440.157349 264.173676,440.157349 268.612854,440.157349 
	C268.612854,437.887726 268.612854,436.128540 268.612854,434.306885 
	C260.975800,434.306885 253.600327,434.306885 246.396255,434.306885 
	C246.396255,450.075897 246.396255,465.465912 246.396255,481.011444 
	C248.612518,481.011444 250.441345,481.011444 253.186752,480.984711 
M297.892853,480.969727 
	C300.153900,480.969727 302.414948,480.969727 304.639343,480.969727 
	C304.639343,463.980560 304.639343,447.593719 304.639343,431.215332 
	C301.852356,431.215332 299.406281,431.215332 296.534973,431.215332 
	C296.534973,439.228424 296.469879,447.030029 296.552399,454.830017 
	C296.643646,463.455505 296.869995,472.079620 297.892853,480.969727 
M509.992126,561.140259 
	C513.111572,562.071838 516.230957,563.003479 519.832825,564.079163 
	C520.136414,567.712524 516.740356,566.492920 514.430176,566.593445 
	C511.592834,566.716797 508.676086,566.513855 510.941742,571.044739 
	C514.197571,571.044739 517.604065,571.510986 520.785034,570.865479 
	C522.619629,570.493164 525.442017,568.384338 525.505188,566.954895 
	C525.926575,557.418396 525.723816,547.854309 525.723816,538.120361 
	C521.569397,538.120361 518.043945,537.986023 514.533997,538.161560 
	C511.569946,538.309875 509.267365,539.786560 509.245331,543.011719 
	C509.205750,548.804993 509.493317,554.600403 509.992126,561.140259 
M406.996460,531.788086 
	C406.996460,542.389648 406.996460,552.991272 406.996460,563.668152 
	C409.257935,563.668152 410.967438,563.668152 413.007416,563.668152 
	C413.007416,558.023193 412.833893,552.712463 413.118256,547.426331 
	C413.198517,545.934753 414.619293,544.515320 415.425201,543.062744 
	C416.172546,544.585449 417.485107,546.079407 417.564240,547.636108 
	C417.833344,552.929993 417.667175,558.245972 417.667175,563.770996 
	C419.780701,563.770996 421.526184,563.770996 423.701202,563.770996 
	C423.701202,556.743652 423.836090,549.953552 423.647980,543.172302 
	C423.543823,539.418152 420.825867,538.134766 417.473694,538.123718 
	C416.092102,538.119141 414.709045,538.555908 412.778748,538.885498 
	C412.778748,535.373596 412.778748,532.293945 412.778748,527.905457 
	C410.287689,529.181213 408.652069,530.018860 406.996460,531.788086 
M432.051910,562.615234 
	C436.962982,563.228333 441.874084,563.841370 447.093506,564.492981 
	C447.093506,555.277222 447.093506,546.874634 447.093506,538.227539 
	C443.062744,538.227539 439.158295,537.836426 435.400146,538.407715 
	C433.749054,538.658752 431.169525,540.823303 431.116394,542.200256 
	C430.863129,548.765991 431.332947,555.359680 432.051910,562.615234 
M239.521866,538.045715 
	C236.974243,538.056519 234.424500,538.005554 231.879501,538.092834 
	C228.308273,538.215271 225.734985,539.558899 225.726624,543.650146 
	C225.716125,548.792603 225.349884,553.981445 225.955658,559.052490 
	C226.170135,560.847900 228.578949,563.425354 230.353394,563.773621 
	C234.078873,564.504822 238.047806,563.995544 242.322876,563.995544 
	C242.322876,555.788879 242.375809,548.012878 242.237213,540.240295 
	C242.224030,539.500977 241.012405,538.783020 239.521866,538.045715 
M203.455856,532.957642 
	C203.455856,543.214600 203.455856,553.471558 203.455856,563.739136 
	C209.179459,563.739136 214.268570,563.739136 219.801270,563.739136 
	C219.559235,555.679504 212.386993,561.514526 210.180389,558.572693 
	C210.180389,555.513489 210.180389,552.622986 210.180389,549.793945 
	C217.866226,548.895691 217.866226,548.895691 216.894394,545.095276 
	C214.642563,544.946106 212.378616,544.796204 210.147705,544.648438 
	C210.147705,541.523315 210.147705,538.800598 210.147705,536.771606 
	C212.852158,533.952820 219.364883,538.856201 219.066833,530.460083 
	C213.486450,531.035217 208.534470,531.545532 203.455856,532.957642 
M271.521973,544.179810 
	C273.368835,551.116638 275.215698,558.053467 277.195374,565.489075 
	C273.818542,568.131470 273.330994,568.741943 273.486725,570.618896 
	C280.644684,571.584961 282.566406,570.301636 283.981750,563.619324 
	C284.463715,561.343994 284.972046,559.074280 285.441803,556.796448 
	C286.696838,550.710754 287.937561,544.622131 289.231842,538.300903 
	C286.886047,538.300903 285.294342,538.300903 283.502502,538.300903 
	C282.455048,543.492737 281.446014,548.494080 280.436951,553.495483 
	C280.035004,553.445618 279.633057,553.395752 279.231110,553.345886 
	C278.219330,548.350586 277.207550,543.355286 276.185272,538.308167 
	C274.144775,538.308167 272.381256,538.308167 270.332581,538.308167 
	C270.689270,540.206604 270.989044,541.802063 271.521973,544.179810 
M440.095856,444.063568 
	C438.479767,444.063568 436.863647,444.063568 435.063049,444.063568 
	C435.063049,456.590698 435.063049,468.631439 435.063049,480.612000 
	C437.908112,480.612000 440.444702,480.612000 443.105499,480.612000 
	C443.105499,473.555725 443.102661,466.898743 443.106232,460.241760 
	C443.110443,452.447510 443.190826,452.349731 450.752808,450.726624 
	C450.752808,448.622101 450.752808,446.508911 450.752808,443.487518 
	C447.915588,444.616974 445.593994,445.541199 444.044708,446.157959 
	C442.753815,445.288025 441.848206,444.677704 440.095856,444.063568 
M349.227783,556.181763 
	C349.445099,563.578735 351.031799,564.673035 360.595154,564.021790 
	C365.193817,563.708557 366.302673,562.087646 365.617371,556.072327 
	C364.089569,556.216980 361.722321,555.787720 361.107239,556.633179 
	C359.758331,558.487427 358.655273,560.848999 356.326385,559.053040 
	C355.132812,558.132690 355.335327,555.401978 354.774200,552.897095 
	C359.028320,552.897095 362.294434,552.897095 366.117157,552.897095 
	C366.117157,549.688049 365.993195,546.897034 366.147369,544.121521 
	C366.357239,540.343811 364.435730,538.529785 360.941071,538.184143 
	C358.962463,537.988464 356.939423,537.995972 354.955475,538.152832 
	C351.268616,538.444519 349.151764,540.317932 349.219330,544.261536 
	C349.282104,547.925964 349.229645,551.592407 349.227783,556.181763 
M277.099152,456.515625 
	C277.099152,464.614563 277.099152,472.713531 277.099152,480.655182 
	C280.363098,480.655182 282.930420,480.655182 285.488342,480.655182 
	C285.488342,468.346741 285.488342,456.420990 285.488342,444.338013 
	C282.645142,444.338013 280.087097,444.338013 277.099182,444.338013 
	C277.099182,448.260071 277.099182,451.892181 277.099152,456.515625 
M415.099152,449.663666 
	C415.099152,459.954437 415.099152,470.245178 415.099152,480.782471 
	C418.138824,480.782471 420.706329,480.782471 423.435181,480.782471 
	C423.435181,468.482452 423.435181,456.419159 423.435181,444.215454 
	C420.649536,444.215454 418.195740,444.215454 415.379883,444.215454 
	C415.279938,445.816010 415.189575,447.262421 415.099152,449.663666 
M495.875092,545.968079 
	C495.875092,551.895935 495.875092,557.823792 495.875092,563.780945 
	C498.159607,563.780945 499.759857,563.780945 501.848206,563.780945 
	C501.848206,556.777588 501.914795,550.001099 501.819122,543.226807 
	C501.773712,540.010071 499.689880,538.368164 496.697845,538.198792 
	C493.032379,537.991272 489.346222,538.149292 485.103790,538.149292 
	C485.103790,542.587463 485.103790,546.702698 485.103790,550.817932 
	C485.103790,555.091736 485.103790,559.365540 485.103790,563.644348 
	C487.423981,563.644348 489.134766,563.644348 491.292419,563.644348 
	C491.292419,556.680664 491.292419,550.084351 491.292419,541.772034 
	C493.543823,543.397217 494.696045,544.228943 495.875092,545.968079 
M399.519592,545.235718 
	C400.334564,540.507812 397.973663,538.458618 393.546661,538.067749 
	C387.690918,537.550842 384.699951,539.070618 384.123199,542.934631 
	C383.028931,550.266296 384.106110,551.548218 393.740417,554.217590 
	C393.810730,554.791626 394.094879,555.495850 393.926697,556.066956 
	C393.548584,557.350891 392.946167,558.568848 392.435059,559.813660 
	C391.602081,559.023926 390.895172,557.957703 389.907440,557.507263 
	C388.308258,556.777954 386.524628,556.453125 384.555939,555.881104 
	C383.771729,560.597351 384.693726,563.370605 388.978760,563.995300 
	C395.707428,564.976318 398.999512,563.675415 399.816467,559.830505 
	C401.328308,552.715393 399.605072,550.633545 389.554626,548.113586 
	C390.079926,546.379883 390.600861,544.660522 391.121796,542.941223 
	C392.002686,543.210449 392.899109,543.437866 393.761200,543.757751 
	C395.487183,544.398132 397.194427,545.089111 399.519592,545.235718 
M252.427902,538.640442 
	C247.270172,540.866455 249.002029,545.475464 249.311279,549.104675 
	C249.790222,554.725464 255.213577,552.518127 258.705048,553.979065 
	C258.781067,555.176086 259.079620,556.506897 258.865265,557.749084 
	C258.734131,558.509094 257.932007,559.399353 257.206207,559.717224 
	C256.779724,559.904053 255.442535,559.200623 255.317490,558.697998 
	C254.324661,554.707153 251.679932,556.593079 249.371246,556.627014 
	C248.851791,560.721924 249.802048,563.491394 254.155075,564.012146 
	C261.100861,564.842896 264.358185,563.654114 264.736511,559.648193 
	C264.994537,556.916443 265.340271,553.183105 263.843658,551.548889 
	C261.934174,549.463806 258.206909,549.043457 254.715515,547.693909 
	C255.022278,546.380737 255.412598,544.709839 255.802917,543.039001 
	C257.090302,543.902283 258.275482,545.077209 259.693512,545.542114 
	C261.139191,546.016174 262.813721,545.792236 264.462860,545.877808 
	C265.265839,540.728760 263.190796,538.385254 258.687653,538.120056 
	C256.876953,538.013428 255.044556,538.274475 252.427902,538.640442 
M312.904633,557.384460 
	C312.904724,554.065125 312.861755,550.744934 312.920990,547.426697 
	C312.956421,545.441223 312.309357,543.547485 315.564941,542.646851 
	C317.791504,542.030823 317.654388,539.218933 314.942139,538.075317 
	C311.925903,536.803589 312.282471,535.593933 314.532288,533.756958 
	C315.688354,532.813049 316.340790,531.252258 317.220795,529.970215 
	C316.799866,529.477478 316.378937,528.984802 315.958008,528.492065 
	C313.382812,529.170898 309.716614,529.037476 308.473083,530.707703 
	C306.285187,533.646301 305.537598,537.673645 304.309998,541.286865 
	C304.178619,541.673584 304.896942,542.322144 305.164337,542.876587 
	C305.788422,544.170532 306.852753,545.464600 306.898895,546.787903 
	C307.093842,552.379700 306.981476,557.982178 306.981476,563.640503 
	C309.211823,563.640503 310.902618,563.640503 312.904541,563.640503 
	C312.904541,561.619385 312.904541,559.980530 312.904633,557.384460 
M460.800171,546.892944 
	C461.606628,545.772888 462.293518,543.812561 463.240112,543.677795 
	C467.413147,543.083923 466.057556,540.621765 465.781433,538.666687 
	C461.916382,538.494507 458.469635,538.341003 454.991852,538.186157 
	C454.991852,546.951843 454.991852,555.343689 454.991852,564.064087 
	C457.060608,563.944824 458.777893,563.845764 460.776855,563.730530 
	C460.776855,558.094055 460.776855,552.955933 460.800171,546.892944 
M341.863800,529.927429 
	C340.096771,529.542175 338.329742,529.156860 336.307251,528.715820 
	C336.307251,540.932068 336.307251,552.307434 336.307251,564.027588 
	C338.351776,563.932800 340.063629,563.853394 341.983124,563.764404 
	C341.983124,552.437988 341.983124,541.646973 341.863800,529.927429 
M471.668335,540.113098 
	C471.668335,547.924316 471.668335,555.735535 471.668335,563.785461 
	C473.769958,563.785461 475.517761,563.785461 477.438293,563.785461 
	C477.438293,555.152344 477.438293,546.759521 477.438293,537.508240 
	C475.185089,538.198792 473.468292,538.724976 471.668335,540.113098 
M322.898529,538.820068 
	C322.898529,547.032532 322.898529,555.244995 322.898529,563.651978 
	C324.757538,563.651978 326.448395,563.651978 328.155457,563.651978 
	C328.155457,555.073669 328.155457,546.860168 328.155457,538.204590 
	C326.487061,538.204590 325.053802,538.204590 322.898529,538.820068 
M420.383728,438.068726 
	C426.825134,437.961029 422.880157,433.725647 423.630341,431.221466 
	C420.531494,431.221466 417.943237,431.221466 415.293427,431.221466 
	C415.293427,433.576904 415.293427,435.637848 415.293427,438.069244 
	C416.871613,438.069244 418.168549,438.069244 420.383728,438.068726 
M285.850250,432.691406 
	C283.066284,431.925934 280.282288,431.160431 277.369476,430.359528 
	C277.369476,433.728607 277.369476,435.790955 277.369476,437.772522 
	C280.323029,437.772522 282.911926,437.772522 285.867371,437.772522 
	C285.867371,436.185638 285.867371,434.891815 285.850250,432.691406 
M473.007416,529.013794 
	C472.490723,530.537476 471.973999,532.061218 471.259949,534.166870 
	C474.179688,534.011475 475.889771,533.920471 477.421570,533.838928 
	C478.702026,529.878540 477.364777,528.491882 473.007416,529.013794 
M328.768860,531.507446 
	C328.110291,527.032898 325.057007,529.568848 322.713806,529.098083 
	C322.713806,530.889404 322.713806,532.276917 322.713806,534.924622 
	C325.154480,533.882446 326.949524,533.115967 328.768860,531.507446 
z"/>
<path fill="#313942" opacity="1.000000" stroke="none" 
	d="
M456.986572,293.945862 
	C449.251190,307.848114 441.643311,321.824158 433.675476,335.591888 
	C432.032257,338.431274 429.414001,341.091614 426.615875,342.809387 
	C415.596832,349.573883 404.326782,355.929535 392.582550,362.767242 
	C377.566193,344.521423 362.626740,326.369080 347.294128,307.765198 
	C346.861389,306.868073 346.821838,306.422546 346.782288,305.976990 
	C358.201752,285.226654 369.631134,264.481812 381.036621,243.723755 
	C386.940369,232.978882 392.801697,222.210663 399.176575,211.217896 
	C417.531799,236.947250 435.383301,262.918121 453.276398,288.860321 
	C454.362549,290.435120 455.778809,291.782196 457.023560,293.353027 
	C457.005676,293.470856 456.986603,293.945862 456.986572,293.945862 
z"/>
<path fill="#313942" opacity="1.000000" stroke="none" 
	d="
M307.979736,260.055573 
	C293.168823,241.852814 278.359344,223.648849 263.545685,205.448349 
	C260.707275,201.961014 257.711090,198.589722 255.073227,194.957550 
	C253.996918,193.475555 253.437424,191.491211 253.062241,189.649963 
	C251.732437,183.123840 254.503922,179.439941 260.428741,176.095718 
	C287.948425,160.562469 315.129456,144.429291 343.013336,128.171738 
	C348.035858,135.431137 353.010620,142.621552 358.367981,150.394165 
	C358.344116,152.854736 358.272675,154.889069 357.481567,156.588348 
	C342.055695,189.723236 326.558319,222.824875 311.013641,255.904236 
	C310.298096,257.426971 309.004242,258.678009 307.979736,260.055573 
z"/>
<path fill="#313942" opacity="1.000000" stroke="none" 
	d="
M398.971130,209.787537 
	C398.202850,208.782516 397.434570,207.777496 397.151489,206.185883 
	C398.439880,205.262405 399.243103,204.925476 400.046295,204.588562 
	C402.547882,207.806732 402.604279,203.913635 402.949646,203.295074 
	C409.742645,191.129227 416.371063,178.871536 423.041687,166.637283 
	C425.500275,162.128113 427.981110,157.631073 430.625092,152.812775 
	C431.906342,153.425064 433.086151,153.890945 434.170013,154.521683 
	C447.950439,162.541519 461.691711,170.629196 475.511749,178.580002 
	C477.870972,179.937256 479.085999,181.311707 479.064667,184.311890 
	C478.909546,206.099289 479.016083,227.888428 478.919983,249.676498 
	C478.911652,251.567657 478.400574,253.647461 477.511292,255.313049 
	C471.568542,266.443604 465.459595,277.485474 458.974762,288.765900 
	C458.544922,288.975677 458.252808,288.989960 457.992676,288.756226 
	C439.028809,261.424255 420.325073,234.326019 401.521149,207.082657 
	C400.485748,208.180954 399.728424,208.984253 398.971130,209.787537 
z"/>
<path fill="#313942" opacity="1.000000" stroke="none" 
	d="
M396.977539,205.981766 
	C392.526611,214.426743 388.160278,222.917603 383.608643,231.307953 
	C370.791382,254.934967 357.897888,278.520630 344.672363,302.526245 
	C343.900299,302.891510 343.490295,302.853088 343.080292,302.814667 
	C332.904602,290.325195 322.728912,277.835693 312.215698,264.792847 
	C312.253082,262.996887 312.480743,261.685547 313.024353,260.521759 
	C328.830414,226.684433 344.665710,192.860733 360.514313,159.043304 
	C360.905518,158.208588 361.501129,157.469666 362.276581,156.255020 
	C367.171448,163.359589 371.738708,170.066528 376.386963,176.716812 
	C383.220154,186.493011 390.111145,196.228775 396.977539,205.981766 
z"/>
<path fill="#313942" opacity="1.000000" stroke="none" 
	d="
M311.130493,265.013367 
	C309.934326,265.383759 308.738129,265.754150 306.136627,266.559723 
	C297.220184,285.563507 287.572510,306.125732 277.852020,326.843231 
	C270.064423,322.321533 262.684540,318.144135 255.451431,313.726440 
	C254.302063,313.024475 253.122742,311.243256 253.119202,309.957794 
	C253.018051,273.320068 253.065552,236.681961 253.100876,200.043915 
	C253.100983,199.932449 253.276016,199.821152 253.751907,199.253342 
	C258.081757,204.503006 262.366302,209.666245 266.616943,214.857254 
	C279.166748,230.183594 291.680908,245.539322 304.297058,260.810822 
	C305.101166,261.784149 306.656067,262.137238 308.299744,262.264893 
	C309.535339,262.838379 310.332916,263.925873 311.130493,265.013367 
z"/>
<path fill="#323A43" opacity="1.000000" stroke="none" 
	d="
M295.590088,297.533813 
	C300.329529,287.493469 304.874908,277.777527 309.748322,267.360413 
	C320.790894,280.868286 331.484161,293.948883 342.261902,307.132812 
	C334.397736,321.540710 326.635590,335.761688 318.549408,350.576294 
	C306.067291,343.314331 293.797852,336.176056 281.015900,328.739655 
	C285.825989,318.409973 290.611023,308.134125 295.590088,297.533813 
z"/>
<path fill="#323A43" opacity="1.000000" stroke="none" 
	d="
M363.781250,151.981628 
	C368.460144,142.085480 373.139008,132.189346 378.053436,121.794968 
	C394.563782,131.422516 410.836273,140.911362 427.509918,150.634140 
	C418.258759,167.647751 409.150635,184.398285 399.632507,201.637543 
	C398.042908,200.913666 396.662415,199.839859 395.714539,198.467285 
	C385.031769,182.998550 374.415405,167.483932 363.781250,151.981628 
z"/>
<path fill="#323A43" opacity="1.000000" stroke="none" 
	d="
M345.920074,311.181305 
	C360.289124,328.859619 374.658142,346.537903 389.372375,364.640900 
	C382.358643,368.736359 375.606750,372.877441 368.628143,376.592712 
	C367.164429,377.371979 364.488403,377.250824 363.011444,376.414124 
	C349.282227,368.636139 335.693146,360.610809 321.817566,352.513763 
	C329.444275,338.548584 336.928802,324.843811 344.913574,311.077759 
	C345.582550,311.071442 345.751312,311.126373 345.920074,311.181305 
z"/>
<path fill="#353D45" opacity="1.000000" stroke="none" 
	d="
M457.166718,294.359009 
	C456.986603,293.945862 457.005676,293.470856 457.132446,293.038300 
	C457.493347,291.993103 457.727478,291.380493 457.961609,290.767853 
	C458.867096,291.361725 459.772583,291.955597 461.007507,292.765533 
	C466.666504,282.446259 472.384827,272.018768 478.103149,261.591309 
	C478.399384,261.603821 478.695648,261.616302 478.991882,261.628784 
	C478.991882,263.325806 478.991852,265.022797 478.991852,266.719818 
	C478.991760,280.695770 479.074219,294.672729 478.897278,308.646454 
	C478.872437,310.606781 477.576965,312.551025 476.869659,314.502716 
	C476.277679,314.422516 475.685699,314.342285 475.093719,314.262085 
	C470.479767,307.618927 465.865814,300.975769 461.251862,294.332611 
	C460.742126,294.366241 460.232422,294.399872 459.722717,294.433533 
	C459.847626,295.903564 459.475433,297.693024 460.180481,298.790283 
	C463.943085,304.645569 467.974976,310.327789 472.132141,316.388306 
	C460.734863,323.036713 449.654419,329.500305 438.573975,335.963898 
	C438.358765,335.762848 438.143585,335.561798 437.928406,335.360748 
	C444.237274,323.762726 450.623932,312.205597 456.763275,300.518494 
	C457.593903,298.937195 457.182922,296.703644 457.166718,294.359009 
z"/>
<path fill="#3C434C" opacity="1.000000" stroke="none" 
	d="
M381.108521,454.042908 
	C381.108521,450.585114 381.108521,447.619293 381.108521,443.648621 
	C384.372467,444.211517 387.099670,444.743713 389.848328,445.118286 
	C390.674408,445.230896 391.591888,445.009949 392.413971,444.763367 
	C400.611481,442.304535 404.873230,445.456146 404.889465,454.039825 
	C404.900146,459.702240 404.899628,465.364716 404.889618,471.027161 
	C404.874084,479.832703 400.671997,482.916260 392.097412,480.424103 
	C391.478912,480.244385 390.867523,480.040161 389.831604,479.715149 
	C389.831604,483.425018 389.831604,486.876038 389.831604,490.704071 
	C386.909943,490.704071 384.344940,490.704071 381.108490,490.704071 
	C381.108490,478.727600 381.108490,466.631226 381.108521,454.042908 
M396.243835,461.516083 
	C396.243835,458.088684 396.243835,454.661255 396.243835,451.494720 
	C391.030090,449.967926 389.377869,451.618713 389.692352,456.169586 
	C389.990356,460.481995 389.736816,464.831268 389.761932,469.164093 
	C389.793732,474.643005 390.330963,475.006958 396.243896,473.317169 
	C396.243896,469.788239 396.243896,466.146332 396.243835,461.516083 
z"/>
<path fill="#E4E5E6" opacity="1.000000" stroke="none" 
	d="
M363.519775,151.930817 
	C374.415405,167.483932 385.031769,182.998550 395.714539,198.467285 
	C396.662415,199.839859 398.042908,200.913666 399.573975,201.977707 
	C399.967468,202.518661 400.009521,203.208160 400.048920,204.243103 
	C399.243103,204.925476 398.439880,205.262405 397.193695,205.790344 
	C396.750702,205.981354 396.900909,205.972931 396.939209,205.977356 
	C390.111145,196.228775 383.220154,186.493011 376.386963,176.716812 
	C371.738708,170.066528 367.171448,163.359589 362.276581,156.255020 
	C361.501129,157.469666 360.905518,158.208588 360.514313,159.043304 
	C344.665710,192.860733 328.830414,226.684433 313.024353,260.521759 
	C312.480743,261.685547 312.253082,262.996887 311.926208,264.624634 
	C311.974243,265.009857 311.552429,265.024536 311.341461,265.018951 
	C310.332916,263.925873 309.535339,262.838379 308.371033,261.880737 
	C307.985840,261.576202 307.967377,261.141815 307.964355,260.381531 
	C309.004242,258.678009 310.298096,257.426971 311.013641,255.904236 
	C326.558319,222.824875 342.055695,189.723236 357.481567,156.588348 
	C358.272675,154.889069 358.344116,152.854736 358.602509,150.618958 
	C359.182281,149.726379 359.910126,149.191238 361.061951,148.355255 
	C361.485931,148.054382 361.946014,147.870621 361.946014,147.870621 
	C362.383453,149.207092 362.820892,150.543549 363.519775,151.930817 
z"/>
<path fill="#363E46" opacity="1.000000" stroke="none" 
	d="
M482.870178,456.089294 
	C482.870178,459.187988 482.870178,461.816437 482.870178,465.014771 
	C479.883423,465.014771 477.275238,465.014771 474.667053,465.014771 
	C472.213898,465.014771 469.760742,465.014771 466.652924,465.014771 
	C468.106293,468.543243 464.076233,472.941315 469.549805,474.621918 
	C472.971985,475.672638 474.900848,473.892181 474.777069,470.139343 
	C477.450714,470.139343 479.892609,470.139343 482.301849,470.139343 
	C483.497070,478.016357 481.124329,480.937805 473.670227,481.014648 
	C458.957825,481.166351 458.746063,480.954590 458.746490,466.069794 
	C458.746643,461.412476 458.837189,456.753082 458.726105,452.098450 
	C458.608276,447.161804 461.165649,444.730621 465.805847,444.200623 
	C467.614349,443.994049 469.458282,444.064789 471.286072,444.065369 
	C481.191742,444.068542 482.858704,445.737976 482.870178,456.089294 
M474.817841,453.865082 
	C474.160034,447.880920 470.045288,451.607605 467.108582,450.807495 
	C467.108582,453.917755 467.108582,456.613007 467.108582,459.435699 
	C469.761414,459.435699 472.111206,459.435699 474.819366,459.435699 
	C474.819366,457.626129 474.819366,456.170776 474.817841,453.865082 
z"/>
<path fill="#363E46" opacity="1.000000" stroke="none" 
	d="
M339.870178,457.028442 
	C339.870178,459.798889 339.870178,462.096100 339.870178,464.920105 
	C334.468536,464.920105 329.403717,464.920105 323.710388,464.920105 
	C325.020386,468.540710 321.124603,472.940948 326.504944,474.576813 
	C329.532898,475.497406 332.424469,474.664520 331.464142,470.129333 
	C334.413177,470.129333 336.851746,470.129333 339.259827,470.129333 
	C340.589905,477.896027 338.161957,480.931885 330.728821,481.014648 
	C315.950287,481.179199 315.746246,480.976624 315.746368,466.129456 
	C315.746429,461.638672 315.697784,457.147156 315.760101,452.657257 
	C315.842834,446.693848 317.833099,444.581512 323.735901,444.094604 
	C324.892731,443.999146 326.063080,444.062256 327.227173,444.060608 
	C338.511780,444.044556 339.866180,445.383667 339.870178,457.028442 
M325.038788,450.864166 
	C324.535431,453.682831 324.032104,456.501495 323.446686,459.779785 
	C326.209412,459.779785 327.834412,459.809601 329.457367,459.764740 
	C330.080322,459.747528 330.698608,459.560089 331.243896,459.463531 
	C332.720276,450.883392 332.536957,450.593964 325.038788,450.864166 
z"/>
<path fill="#363E46" opacity="1.000000" stroke="none" 
	d="
M365.940186,444.705566 
	C371.403442,446.481628 370.986389,450.530853 370.909454,454.817993 
	C368.319153,454.817993 366.033661,454.817993 364.207306,454.817993 
	C362.828339,453.204468 361.739380,451.560303 360.244049,450.477234 
	C359.926056,450.246948 357.140442,452.131226 357.196686,452.919617 
	C357.363861,455.262634 358.367584,457.549194 359.103607,459.838837 
	C359.141571,459.956970 359.741058,459.852661 360.060852,459.928711 
	C363.317413,460.702850 368.489594,460.563690 369.415466,462.476257 
	C371.217529,466.198578 370.711212,471.069031 370.985474,475.474854 
	C371.041168,476.369598 370.474152,477.416016 369.932098,478.214630 
	C368.006042,481.052277 358.305847,482.327301 353.408783,480.468323 
	C349.612549,479.027222 348.638306,476.577026 349.496002,470.302307 
	C351.742035,470.302307 354.026825,470.302307 356.311646,470.302307 
	C356.117493,470.574066 355.923340,470.845825 355.729218,471.117554 
	C357.476288,472.392426 359.223358,473.667267 360.970459,474.942139 
	C361.898956,472.309113 362.827484,469.676056 364.017242,466.302155 
	C360.445374,466.101105 358.172089,466.076813 355.924316,465.825012 
	C351.276855,465.304443 348.911194,462.928619 348.828766,457.944489 
	C348.612000,444.840363 351.680176,442.280518 365.940186,444.705566 
z"/>
<path fill="#363E46" opacity="1.000000" stroke="none" 
	d="
M252.728470,480.998077 
	C250.441345,481.011444 248.612518,481.011444 246.396255,481.011444 
	C246.396255,465.465912 246.396255,450.075897 246.396255,434.306885 
	C253.600327,434.306885 260.975800,434.306885 268.612854,434.306885 
	C268.612854,436.128540 268.612854,437.887726 268.612854,440.157349 
	C264.173676,440.157349 259.757996,440.157349 255.040634,440.157349 
	C255.040634,445.236176 255.040634,449.816467 255.040634,454.812988 
	C258.582977,454.812988 262.014435,454.812988 265.860901,454.812988 
	C265.958313,456.935303 266.037872,458.668060 266.143005,460.957947 
	C262.292664,460.957947 258.714905,460.957947 254.732086,460.957947 
	C254.732086,466.615265 254.839615,471.742828 254.661285,476.860413 
	C254.612839,478.250610 253.701859,479.610779 252.728470,480.998077 
z"/>
<path fill="#353D45" opacity="1.000000" stroke="none" 
	d="
M361.989441,147.522034 
	C361.946014,147.870621 361.485931,148.054382 361.238281,148.060272 
	C356.146881,140.941055 351.303192,133.815964 346.203094,126.313728 
	C352.045471,122.902130 357.519684,119.459808 363.223145,116.452126 
	C367.851654,114.011322 370.858368,117.902008 374.741638,119.954323 
	C370.435516,129.177032 366.234192,138.175247 361.989441,147.522034 
z"/>
<path fill="#323A43" opacity="1.000000" stroke="none" 
	d="
M297.465179,480.837036 
	C296.869995,472.079620 296.643646,463.455505 296.552399,454.830017 
	C296.469879,447.030029 296.534973,439.228424 296.534973,431.215332 
	C299.406281,431.215332 301.852356,431.215332 304.639343,431.215332 
	C304.639343,447.593719 304.639343,463.980560 304.639343,480.969727 
	C302.414948,480.969727 300.153900,480.969727 297.465179,480.837036 
z"/>
<path fill="#5F656C" opacity="1.000000" stroke="none" 
	d="
M509.818146,560.767578 
	C509.493317,554.600403 509.205750,548.804993 509.245331,543.011719 
	C509.267365,539.786560 511.569946,538.309875 514.533997,538.161560 
	C518.043945,537.986023 521.569397,538.120361 525.723816,538.120361 
	C525.723816,547.854309 525.926575,557.418396 525.505188,566.954895 
	C525.442017,568.384338 522.619629,570.493164 520.785034,570.865479 
	C517.604065,571.510986 514.197571,571.044739 510.941742,571.044739 
	C508.676086,566.513855 511.592834,566.716797 514.430176,566.593445 
	C516.740356,566.492920 520.136414,567.712524 519.832825,564.079163 
	C516.230957,563.003479 513.111572,562.071838 509.818146,560.767578 
M519.944946,553.250732 
	C519.944763,551.106873 519.856384,548.958679 519.963684,546.820190 
	C520.154114,543.023193 518.521973,542.260559 515.055054,543.675354 
	C515.055054,547.305115 514.832031,550.774841 515.152710,554.193604 
	C515.304504,555.810974 516.496765,557.330627 517.217651,558.894592 
	C518.126465,557.317932 519.035339,555.741272 519.944946,553.250732 
z"/>
<path fill="#E4E5E6" opacity="1.000000" stroke="none" 
	d="
M458.014282,290.545898 
	C457.727478,291.380493 457.493347,291.993103 457.150330,292.920471 
	C455.778809,291.782196 454.362549,290.435120 453.276398,288.860321 
	C435.383301,262.918121 417.531799,236.947250 399.326111,210.898071 
	C398.967529,210.642609 398.953796,210.471863 398.955627,210.044342 
	C399.728424,208.984253 400.485748,208.180954 401.521149,207.082657 
	C420.325073,234.326019 439.028809,261.424255 457.972961,288.982819 
	C458.213379,289.443176 458.050690,289.867981 458.050690,289.867981 
	C458.050690,289.867981 458.066986,290.323944 458.014282,290.545898 
z"/>
<path fill="#5F656C" opacity="1.000000" stroke="none" 
	d="
M407.006470,531.322266 
	C408.652069,530.018860 410.287689,529.181213 412.778748,527.905457 
	C412.778748,532.293945 412.778748,535.373596 412.778748,538.885498 
	C414.709045,538.555908 416.092102,538.119141 417.473694,538.123718 
	C420.825867,538.134766 423.543823,539.418152 423.647980,543.172302 
	C423.836090,549.953552 423.701202,556.743652 423.701202,563.770996 
	C421.526184,563.770996 419.780701,563.770996 417.667175,563.770996 
	C417.667175,558.245972 417.833344,552.929993 417.564240,547.636108 
	C417.485107,546.079407 416.172546,544.585449 415.425232,543.062744 
	C414.619293,544.515320 413.198517,545.934753 413.118256,547.426331 
	C412.833893,552.712463 413.007416,558.023193 413.007416,563.668152 
	C410.967438,563.668152 409.257935,563.668152 406.996460,563.668152 
	C406.996460,552.991272 406.996460,542.389648 407.006470,531.322266 
z"/>
<path fill="#60666D" opacity="1.000000" stroke="none" 
	d="
M431.798737,562.279297 
	C431.332947,555.359680 430.863129,548.765991 431.116394,542.200256 
	C431.169525,540.823303 433.749054,538.658752 435.400146,538.407715 
	C439.158295,537.836426 443.062744,538.227539 447.093506,538.227539 
	C447.093506,546.874634 447.093506,555.277222 447.093506,564.492981 
	C441.874084,563.841370 436.962982,563.228333 431.798737,562.279297 
M441.226471,546.726807 
	C441.449860,543.345154 440.165009,542.202148 436.779907,543.746399 
	C436.779907,547.987732 436.632935,552.115479 436.883270,556.218933 
	C436.945831,557.244690 438.287567,558.192383 439.041382,559.176025 
	C439.767822,558.144958 441.001312,557.169189 441.121124,556.071899 
	C441.423767,553.299988 441.225403,550.473389 441.226471,546.726807 
z"/>
<path fill="#60666D" opacity="1.000000" stroke="none" 
	d="
M239.939514,538.050415 
	C241.012405,538.783020 242.224030,539.500977 242.237213,540.240295 
	C242.375809,548.012878 242.322876,555.788879 242.322876,563.995544 
	C238.047806,563.995544 234.078873,564.504822 230.353394,563.773621 
	C228.578949,563.425354 226.170135,560.847900 225.955658,559.052490 
	C225.349884,553.981445 225.716125,548.792603 225.726624,543.650146 
	C225.734985,539.558899 228.308273,538.215271 231.879501,538.092834 
	C234.424500,538.005554 236.974243,538.056519 239.939514,538.050415 
M236.227768,551.491699 
	C236.225357,549.678345 236.596146,547.754395 236.101822,546.086914 
	C235.710190,544.765869 234.257675,543.759277 233.276245,542.613098 
	C232.774933,542.948608 232.273605,543.284119 231.772293,543.619629 
	C231.772293,546.558044 231.526459,549.523987 231.850647,552.426208 
	C232.106567,554.717346 233.204147,558.905273 233.687485,558.870850 
	C238.287537,558.543579 235.436264,554.718872 236.227768,551.491699 
z"/>
<path fill="#60666D" opacity="1.000000" stroke="none" 
	d="
M203.519180,532.506714 
	C208.534470,531.545532 213.486450,531.035217 219.066833,530.460083 
	C219.364883,538.856201 212.852158,533.952820 210.147705,536.771606 
	C210.147705,538.800598 210.147705,541.523315 210.147705,544.648438 
	C212.378616,544.796204 214.642563,544.946106 216.894394,545.095276 
	C217.866226,548.895691 217.866226,548.895691 210.180389,549.793945 
	C210.180389,552.622986 210.180389,555.513489 210.180389,558.572693 
	C212.386993,561.514526 219.559235,555.679504 219.801270,563.739136 
	C214.268570,563.739136 209.179459,563.739136 203.455856,563.739136 
	C203.455856,553.471558 203.455856,543.214600 203.519180,532.506714 
z"/>
<path fill="#60666D" opacity="1.000000" stroke="none" 
	d="
M271.405396,543.788696 
	C270.989044,541.802063 270.689270,540.206604 270.332581,538.308167 
	C272.381256,538.308167 274.144775,538.308167 276.185272,538.308167 
	C277.207550,543.355286 278.219330,548.350586 279.231110,553.345886 
	C279.633057,553.395752 280.035004,553.445618 280.436951,553.495483 
	C281.446014,548.494080 282.455048,543.492737 283.502502,538.300903 
	C285.294342,538.300903 286.886047,538.300903 289.231842,538.300903 
	C287.937561,544.622131 286.696838,550.710754 285.441803,556.796448 
	C284.972046,559.074280 284.463715,561.343994 283.981750,563.619324 
	C282.566406,570.301636 280.644684,571.584961 273.486725,570.618896 
	C273.330994,568.741943 273.818542,568.131470 277.195374,565.489075 
	C275.215698,558.053467 273.368835,551.116638 271.405396,543.788696 
z"/>
<path fill="#353D45" opacity="1.000000" stroke="none" 
	d="
M440.519226,444.065491 
	C441.848206,444.677704 442.753815,445.288025 444.044708,446.157959 
	C445.593994,445.541199 447.915588,444.616974 450.752808,443.487518 
	C450.752808,446.508911 450.752808,448.622101 450.752808,450.726624 
	C443.190826,452.349731 443.110443,452.447510 443.106232,460.241760 
	C443.102661,466.898743 443.105499,473.555725 443.105499,480.612000 
	C440.444702,480.612000 437.908112,480.612000 435.063049,480.612000 
	C435.063049,468.631439 435.063049,456.590698 435.063049,444.063568 
	C436.863647,444.063568 438.479767,444.063568 440.519226,444.065491 
z"/>
<path fill="#60666D" opacity="1.000000" stroke="none" 
	d="
M349.227844,555.719849 
	C349.229645,551.592407 349.282104,547.925964 349.219330,544.261536 
	C349.151764,540.317932 351.268616,538.444519 354.955475,538.152832 
	C356.939423,537.995972 358.962463,537.988464 360.941071,538.184143 
	C364.435730,538.529785 366.357239,540.343811 366.147369,544.121521 
	C365.993195,546.897034 366.117157,549.688049 366.117157,552.897095 
	C362.294434,552.897095 359.028320,552.897095 354.774200,552.897095 
	C355.335327,555.401978 355.132812,558.132690 356.326385,559.053040 
	C358.655273,560.848999 359.758331,558.487427 361.107239,556.633179 
	C361.722321,555.787720 364.089569,556.216980 365.617371,556.072327 
	C366.302673,562.087646 365.193817,563.708557 360.595154,564.021790 
	C351.031799,564.673035 349.445099,563.578735 349.227844,555.719849 
M359.139435,548.977600 
	C359.787109,547.209412 360.434814,545.441223 361.287720,543.112793 
	C358.599640,543.112793 356.945953,543.112793 355.097778,543.112793 
	C355.460480,545.886536 353.420563,549.395203 359.139435,548.977600 
z"/>
<path fill="#3E464E" opacity="1.000000" stroke="none" 
	d="
M277.099182,456.019958 
	C277.099182,451.892181 277.099182,448.260071 277.099182,444.338013 
	C280.087097,444.338013 282.645142,444.338013 285.488342,444.338013 
	C285.488342,456.420990 285.488342,468.346741 285.488342,480.655182 
	C282.930420,480.655182 280.363098,480.655182 277.099152,480.655182 
	C277.099152,472.713531 277.099152,464.614563 277.099182,456.019958 
z"/>
<path fill="#3E464E" opacity="1.000000" stroke="none" 
	d="
M415.099182,449.186279 
	C415.189575,447.262421 415.279938,445.816010 415.379883,444.215454 
	C418.195740,444.215454 420.649536,444.215454 423.435181,444.215454 
	C423.435181,456.419159 423.435181,468.482452 423.435181,480.782471 
	C420.706329,480.782471 418.138824,480.782471 415.099152,480.782471 
	C415.099152,470.245178 415.099152,459.954437 415.099182,449.186279 
z"/>
<path fill="#60666D" opacity="1.000000" stroke="none" 
	d="
M495.861694,545.514404 
	C494.696045,544.228943 493.543823,543.397217 491.292419,541.772034 
	C491.292419,550.084351 491.292419,556.680664 491.292419,563.644348 
	C489.134766,563.644348 487.423981,563.644348 485.103790,563.644348 
	C485.103790,559.365540 485.103790,555.091736 485.103790,550.817932 
	C485.103790,546.702698 485.103790,542.587463 485.103790,538.149292 
	C489.346222,538.149292 493.032379,537.991272 496.697845,538.198792 
	C499.689880,538.368164 501.773712,540.010071 501.819122,543.226807 
	C501.914795,550.001099 501.848206,556.777588 501.848206,563.780945 
	C499.759857,563.780945 498.159607,563.780945 495.875092,563.780945 
	C495.875092,557.823792 495.875092,551.895935 495.861694,545.514404 
z"/>
<path fill="#62676F" opacity="1.000000" stroke="none" 
	d="
M399.214508,545.497437 
	C397.194427,545.089111 395.487183,544.398132 393.761200,543.757751 
	C392.899109,543.437866 392.002686,543.210449 391.121796,542.941223 
	C390.600861,544.660522 390.079926,546.379883 389.554626,548.113586 
	C399.605072,550.633545 401.328308,552.715393 399.816467,559.830505 
	C398.999512,563.675415 395.707428,564.976318 388.978760,563.995300 
	C384.693726,563.370605 383.771729,560.597351 384.555939,555.881104 
	C386.524628,556.453125 388.308258,556.777954 389.907440,557.507263 
	C390.895172,557.957703 391.602081,559.023926 392.435059,559.813660 
	C392.946167,558.568848 393.548584,557.350891 393.926697,556.066956 
	C394.094879,555.495850 393.810730,554.791626 393.740417,554.217590 
	C384.106110,551.548218 383.028931,550.266296 384.123199,542.934631 
	C384.699951,539.070618 387.690918,537.550842 393.546661,538.067749 
	C397.973663,538.458618 400.334564,540.507812 399.214508,545.497437 
z"/>
<path fill="#62676F" opacity="1.000000" stroke="none" 
	d="
M252.824966,538.504395 
	C255.044556,538.274475 256.876953,538.013428 258.687653,538.120056 
	C263.190796,538.385254 265.265839,540.728760 264.462860,545.877808 
	C262.813721,545.792236 261.139191,546.016174 259.693512,545.542114 
	C258.275482,545.077209 257.090302,543.902283 255.802917,543.039001 
	C255.412598,544.709839 255.022278,546.380737 254.715515,547.693909 
	C258.206909,549.043457 261.934174,549.463806 263.843658,551.548889 
	C265.340271,553.183105 264.994537,556.916443 264.736511,559.648193 
	C264.358185,563.654114 261.100861,564.842896 254.155075,564.012146 
	C249.802048,563.491394 248.851791,560.721924 249.371246,556.627014 
	C251.679932,556.593079 254.324661,554.707153 255.317490,558.697998 
	C255.442535,559.200623 256.779724,559.904053 257.206207,559.717224 
	C257.932007,559.399353 258.734131,558.509094 258.865265,557.749084 
	C259.079620,556.506897 258.781067,555.176086 258.705048,553.979065 
	C255.213577,552.518127 249.790222,554.725464 249.311279,549.104675 
	C249.002029,545.475464 247.270172,540.866455 252.824966,538.504395 
z"/>
<path fill="#62676F" opacity="1.000000" stroke="none" 
	d="
M312.904602,557.863098 
	C312.904541,559.980530 312.904541,561.619385 312.904541,563.640503 
	C310.902618,563.640503 309.211823,563.640503 306.981476,563.640503 
	C306.981476,557.982178 307.093842,552.379700 306.898895,546.787903 
	C306.852753,545.464600 305.788422,544.170532 305.164337,542.876587 
	C304.896942,542.322144 304.178619,541.673584 304.309998,541.286865 
	C305.537598,537.673645 306.285187,533.646301 308.473083,530.707703 
	C309.716614,529.037476 313.382812,529.170898 315.958008,528.492065 
	C316.378937,528.984802 316.799866,529.477478 317.220795,529.970215 
	C316.340790,531.252258 315.688354,532.813049 314.532288,533.756958 
	C312.282471,535.593933 311.925903,536.803589 314.942139,538.075317 
	C317.654388,539.218933 317.791504,542.030823 315.564941,542.646851 
	C312.309357,543.547485 312.956421,545.441223 312.920990,547.426697 
	C312.861755,550.744934 312.904724,554.065125 312.904602,557.863098 
z"/>
<path fill="#60666D" opacity="1.000000" stroke="none" 
	d="
M460.788513,547.355347 
	C460.776855,552.955933 460.776855,558.094055 460.776855,563.730530 
	C458.777893,563.845764 457.060608,563.944824 454.991852,564.064087 
	C454.991852,555.343689 454.991852,546.951843 454.991852,538.186157 
	C458.469635,538.341003 461.916382,538.494507 465.781433,538.666687 
	C466.057556,540.621765 467.413147,543.083923 463.240112,543.677795 
	C462.293518,543.812561 461.606628,545.772888 460.788513,547.355347 
z"/>
<path fill="#5F656C" opacity="1.000000" stroke="none" 
	d="
M341.923462,530.391663 
	C341.983124,541.646973 341.983124,552.437988 341.983124,563.764404 
	C340.063629,563.853394 338.351776,563.932800 336.307251,564.027588 
	C336.307251,552.307434 336.307251,540.932068 336.307251,528.715820 
	C338.329742,529.156860 340.096771,529.542175 341.923462,530.391663 
z"/>
<path fill="#62676F" opacity="1.000000" stroke="none" 
	d="
M471.709900,539.682129 
	C473.468292,538.724976 475.185089,538.198792 477.438293,537.508240 
	C477.438293,546.759521 477.438293,555.152344 477.438293,563.785461 
	C475.517761,563.785461 473.769958,563.785461 471.668335,563.785461 
	C471.668335,555.735535 471.668335,547.924316 471.709900,539.682129 
z"/>
<path fill="#5F656C" opacity="1.000000" stroke="none" 
	d="
M323.259521,538.512329 
	C325.053802,538.204590 326.487061,538.204590 328.155457,538.204590 
	C328.155457,546.860168 328.155457,555.073669 328.155457,563.651978 
	C326.448395,563.651978 324.757538,563.651978 322.898529,563.651978 
	C322.898529,555.244995 322.898529,547.032532 323.259521,538.512329 
z"/>
<path fill="#363E46" opacity="1.000000" stroke="none" 
	d="
M419.924622,438.068970 
	C418.168549,438.069244 416.871613,438.069244 415.293427,438.069244 
	C415.293427,435.637848 415.293427,433.576904 415.293427,431.221466 
	C417.943237,431.221466 420.531494,431.221466 423.630341,431.221466 
	C422.880157,433.725647 426.825134,437.961029 419.924622,438.068970 
z"/>
<path fill="#363E46" opacity="1.000000" stroke="none" 
	d="
M285.858826,433.144684 
	C285.867371,434.891815 285.867371,436.185638 285.867371,437.772522 
	C282.911926,437.772522 280.323029,437.772522 277.369476,437.772522 
	C277.369476,435.790955 277.369476,433.728607 277.369476,430.359528 
	C280.282288,431.160431 283.066284,431.925934 285.858826,433.144684 
z"/>
<path fill="#5F656C" opacity="1.000000" stroke="none" 
	d="
M473.417938,528.997437 
	C477.364777,528.491882 478.702026,529.878540 477.421570,533.838928 
	C475.889771,533.920471 474.179688,534.011475 471.259949,534.166870 
	C471.973999,532.061218 472.490723,530.537476 473.417938,528.997437 
z"/>
<path fill="#62676F" opacity="1.000000" stroke="none" 
	d="
M328.756714,531.928467 
	C326.949524,533.115967 325.154480,533.882446 322.713806,534.924622 
	C322.713806,532.276917 322.713806,530.889404 322.713806,529.098083 
	C325.057007,529.568848 328.110291,527.032898 328.756714,531.928467 
z"/>
<path fill="#E4E5E6" opacity="1.000000" stroke="none" 
	d="
M345.953796,310.823975 
	C345.751312,311.126373 345.582550,311.071442 345.194763,310.865173 
	C345.778564,309.225800 340.549347,306.296112 346.448700,305.961670 
	C346.821838,306.422546 346.861389,306.868073 346.982788,307.639893 
	C346.705597,308.799652 346.346527,309.633148 345.953796,310.823975 
z"/>
<path fill="#E4E5E6" opacity="1.000000" stroke="none" 
	d="
M343.087799,303.138947 
	C343.490295,302.853088 343.900299,302.891510 344.613953,302.868805 
	C344.722260,303.383392 344.526886,303.959045 344.331482,304.534698 
	C343.919434,304.177551 343.507355,303.820374 343.087799,303.138947 
z"/>
<path fill="#353D45" opacity="1.000000" stroke="none" 
	d="
M458.308350,289.911804 
	C458.050690,289.867981 458.213379,289.443176 458.233093,289.216553 
	C458.252808,288.989960 458.544922,288.975677 458.690643,288.963867 
	C458.746246,289.286591 458.656128,289.621124 458.308350,289.911804 
z"/>
<path fill="#F3F3F3" opacity="1.000000" stroke="none" 
	d="
M396.243866,462.010254 
	C396.243896,466.146332 396.243896,469.788239 396.243896,473.317169 
	C390.330963,475.006958 389.793732,474.643005 389.761932,469.164093 
	C389.736816,464.831268 389.990356,460.481995 389.692352,456.169586 
	C389.377869,451.618713 391.030090,449.967926 396.243835,451.494720 
	C396.243835,454.661255 396.243835,458.088684 396.243866,462.010254 
z"/>
<path fill="#E4E5E6" opacity="1.000000" stroke="none" 
	d="
M474.818604,454.290222 
	C474.819366,456.170776 474.819366,457.626129 474.819366,459.435699 
	C472.111206,459.435699 469.761414,459.435699 467.108582,459.435699 
	C467.108582,456.613007 467.108582,453.917755 467.108582,450.807495 
	C470.045288,451.607605 474.160034,447.880920 474.818604,454.290222 
z"/>
<path fill="#E4E5E6" opacity="1.000000" stroke="none" 
	d="
M325.445679,450.767212 
	C332.536957,450.593964 332.720276,450.883392 331.243896,459.463531 
	C330.698608,459.560089 330.080322,459.747528 329.457367,459.764740 
	C327.834412,459.809601 326.209412,459.779785 323.446686,459.779785 
	C324.032104,456.501495 324.535431,453.682831 325.445679,450.767212 
z"/>
<path fill="#E4E5E6" opacity="1.000000" stroke="none" 
	d="
M519.944580,553.707703 
	C519.035339,555.741272 518.126465,557.317932 517.217651,558.894592 
	C516.496765,557.330627 515.304504,555.810974 515.152710,554.193604 
	C514.832031,550.774841 515.055054,547.305115 515.055054,543.675354 
	C518.521973,542.260559 520.154114,543.023193 519.963684,546.820190 
	C519.856384,548.958679 519.944763,551.106873 519.944580,553.707703 
z"/>
<path fill="#F3F3F3" opacity="1.000000" stroke="none" 
	d="
M441.227112,547.197754 
	C441.225403,550.473389 441.423767,553.299988 441.121124,556.071899 
	C441.001312,557.169189 439.767822,558.144958 439.041382,559.176025 
	C438.287567,558.192383 436.945831,557.244690 436.883270,556.218933 
	C436.632935,552.115479 436.779907,547.987732 436.779907,543.746399 
	C440.165009,542.202148 441.449860,543.345154 441.227112,547.197754 
z"/>
<path fill="#F3F3F3" opacity="1.000000" stroke="none" 
	d="
M236.227844,551.977112 
	C235.436264,554.718872 238.287537,558.543579 233.687485,558.870850 
	C233.204147,558.905273 232.106567,554.717346 231.850647,552.426208 
	C231.526459,549.523987 231.772293,546.558044 231.772293,543.619629 
	C232.273605,543.284119 232.774933,542.948608 233.276245,542.613098 
	C234.257675,543.759277 235.710190,544.765869 236.101822,546.086914 
	C236.596146,547.754395 236.225357,549.678345 236.227844,551.977112 
z"/>
<path fill="#E4E5E6" opacity="1.000000" stroke="none" 
	d="
M358.730621,548.994263 
	C353.420563,549.395203 355.460480,545.886536 355.097778,543.112793 
	C356.945953,543.112793 358.599640,543.112793 361.287720,543.112793 
	C360.434814,545.441223 359.787109,547.209412 358.730621,548.994263 
z"/>
</svg>
